#!OML:ASF H:\Dans Jumps\Project 1\Capture day 1\Session 1\subject.ASF
:FULLY-SPECIFIED
:DEGREES
118
root 0.27154 17.4863 3.21244 6.09228 -3.26496 -0.962665
lowerback -6.34184 -0.742923 -1.06559
upperback 1.77439 -0.926123 0.457127
thorax 5.42781 -0.501207 0.971996
lowerneck -13.6357 0.245947 0.0326381
upperneck 12.4606 0.177536 0.972388
head 6.01283 0.164896 0.319446
rclavicle 1.69961e-014 -9.64106e-015
rhumerus -14.5822 -50.3108 -6.64797
rradius 26.9114
rwrist 40.5595
rhand -6.01941 -22.9071
rfingers 7.12502
rthumb 19.8137 -51.9172
lclavicle 1.69961e-014 -9.64106e-015
lhumerus -6.95325 36.6344 16.4255
lradius 24.8237
lwrist -4.87756
lhand -20.0105 -5.58279
lfingers 7.12502
lthumb 6.32964 24.3026
rfemur -16.6084 -4.44662 17.2213
rtibia 31.3964
rfoot -18.3184 -5.52692
rtoes 11.7181
lfemur -13.4959 7.25759 -16.8999
ltibia 27.6087
lfoot -15.1023 14.301
ltoes 7.09868
119
root 0.272348 17.486 3.21161 6.09166 -3.24465 -0.948083
lowerback -6.33136 -0.746498 -1.08205
upperback 1.77062 -0.929544 0.455734
thorax 5.41824 -0.503357 0.979565
lowerneck -13.6507 0.247386 0.0507501
upperneck 12.504 0.18024 0.940749
head 6.02914 0.164707 0.306823
rclavicle -1.55301e-015 1.07344e-014
rhumerus -14.5828 -50.3317 -6.65413
rradius 26.8992
rwrist 40.5927
rhand -6.06108 -22.9409
rfingers 7.12502
rthumb 19.7736 -51.9551
lclavicle -1.55301e-015 1.07344e-014
lhumerus -6.95703 36.6429 16.4235
lradius 24.8318
lwrist -4.8942
lhand -20.0279 -5.67684
lfingers 7.12502
lthumb 6.31289 24.2091
rfemur -16.6077 -4.46202 17.2022
rtibia 31.3959
rfoot -18.3227 -5.54163
rtoes 11.7408
lfemur -13.5038 7.27843 -16.9191
ltibia 27.6163
lfoot -15.0821 14.2679
ltoes 7.01838
120
root 0.272761 17.4859 3.21065 6.08695 -3.22642 -0.958935
lowerback -6.3345 -0.743238 -1.07112
upperback 1.7849 -0.925931 0.453129
thorax 5.43466 -0.501315 0.970989
lowerneck -13.6013 0.22174 0.0513625
upperneck 12.4521 0.147999 0.927657
head 6.0045 0.147791 0.29943
rclavicle -9.56651e-015 -4.96962e-015
rhumerus -14.5977 -50.3208 -6.66466
rradius 26.9012
rwrist 40.5486
rhand -6.02051 -22.926
rfingers 7.12502
rthumb 19.8126 -51.9362
lclavicle -9.56651e-015 -4.96962e-015
lhumerus -6.96919 36.4739 16.3979
lradius 24.8673
lwrist -4.72132
lhand -20.042 -5.60322
lfingers 7.12502
lthumb 6.2993 24.2831
rfemur -16.603 -4.45355 17.2149
rtibia 31.3946
rfoot -18.3138 -5.56466
rtoes 11.7038
lfemur -13.5134 7.27933 -16.9049
ltibia 27.6254
lfoot -15.0928 14.2446
ltoes 7.09506
121
root 0.274159 17.4863 3.20885 6.08808 -3.21442 -0.940121
lowerback -6.33847 -0.743072 -1.086
upperback 1.80299 -0.924084 0.447148
thorax 5.45598 -0.500991 0.973175
lowerneck -13.5978 0.207185 0.0355433
upperneck 12.4533 0.130847 0.9318
head 6.00436 0.139038 0.301766
rclavicle -3.98812e-015 1.40143e-014
rhumerus -14.6041 -50.3245 -6.67112
rradius 26.9072
rwrist 40.5639
rhand -5.99325 -22.9484
rfingers 7.12502
rthumb 19.8388 -51.9559
lclavicle -3.98812e-015 1.40143e-014
lhumerus -6.992 36.4404 16.3799
lradius 24.8965
lwrist -4.68126
lhand -19.9983 -5.66629
lfingers 7.12502
lthumb 6.34142 24.2188
rfemur -16.6112 -4.51379 17.19
rtibia 31.3931
rfoot -18.3059 -5.51806
rtoes 11.6157
lfemur -13.5299 7.29828 -16.9329
ltibia 27.6336
lfoot -15.0717 14.2173
ltoes 6.98707
122
root 0.274272 17.4862 3.20698 6.07386 -3.20255 -0.972881
lowerback -6.31007 -0.745681 -1.07125
upperback 1.80909 -0.930126 0.466922
thorax 5.44646 -0.503835 0.985067
lowerneck -13.5226 0.196175 0.0491575
upperneck 12.386 0.121882 0.87973
head 5.97042 0.130837 0.281943
rclavicle 1.80149e-015 -5.96354e-015
rhumerus -14.5823 -50.4444 -6.67836
rradius 26.8952
rwrist 40.7073
rhand -5.88957 -22.93
rfingers 7.12502
rthumb 19.9385 -51.9272
lclavicle 1.80149e-015 -5.96354e-015
lhumerus -7.02163 36.3993 16.3631
lradius 24.9061
lwrist -4.61172
lhand -20.0277 -5.68368
lfingers 7.12502
lthumb 6.31308 24.2022
rfemur -16.5943 -4.46937 17.2281
rtibia 31.3914
rfoot -18.3003 -5.56969
rtoes 11.704
lfemur -13.5294 7.28629 -16.8933
ltibia 27.644
lfoot -15.0665 14.2251
ltoes 6.95349
123
root 0.275149 17.4858 3.20728 6.06883 -3.1749 -0.964347
lowerback -6.31606 -0.740277 -1.08002
upperback 1.81358 -0.921934 0.463578
thorax 5.45445 -0.500082 0.98732
lowerneck -13.4632 0.17896 -0.00768483
upperneck 12.3518 0.101261 0.940079
head 5.94957 0.122672 0.308314
rclavicle -3.32964e-015 1.2921e-015
rhumerus -14.626 -50.4062 -6.65809
rradius 26.9005
rwrist 40.6289
rhand -5.98892 -22.9201
rfingers 7.12502
rthumb 19.843 -51.9272
lclavicle -3.32964e-015 1.2921e-015
lhumerus -6.94547 36.4677 16.4046
lradius 24.8643
lwrist -4.71886
lhand -20.0388 -5.66763
lfingers 7.12502
lthumb 6.30235 24.2186
rfemur -16.5878 -4.50942 17.215
rtibia 31.3917
rfoot -18.2965 -5.5517
rtoes 11.7123
lfemur -13.5256 7.29405 -16.9041
ltibia 27.6501
lfoot -15.0818 14.1813
ltoes 7.00352
124
root 0.275401 17.4859 3.20369 6.06963 -3.16744 -0.966112
lowerback -6.27055 -0.735371 -1.09077
upperback 1.7974 -0.915157 0.467564
thorax 5.41166 -0.496877 0.998863
lowerneck -13.4237 0.182998 -0.0273214
upperneck 12.3514 0.106048 0.971151
head 5.94273 0.126419 0.321719
rclavicle 1.20637e-014 -5.96354e-016
rhumerus -14.6439 -50.609 -6.62582
rradius 26.8722
rwrist 40.8839
rhand -5.90142 -22.9499
rfingers 7.12502
rthumb 19.9271 -51.9482
lclavicle 1.20637e-014 -5.96354e-016
lhumerus -6.93632 36.4568 16.4092
lradius 24.8588
lwrist -4.73171
lhand -20.0847 -5.63359
lfingers 7.12502
lthumb 6.25805 24.254
rfemur -16.5984 -4.46945 17.2197
rtibia 31.394
rfoot -18.2983 -5.5982
rtoes 11.6758
lfemur -13.5477 7.28218 -16.9032
ltibia 27.6555
lfoot -15.0707 14.1834
ltoes 7.01052
125
root 0.276354 17.4855 3.20362 6.05633 -3.14712 -0.961683
lowerback -6.27588 -0.741752 -1.10077
upperback 1.81375 -0.923109 0.473957
thorax 5.43232 -0.501447 1.01009
lowerneck -13.4024 0.172154 -0.0359689
upperneck 12.33 0.09464 0.96236
head 5.93242 0.119666 0.319239
rclavicle -9.69075e-016 -4.87022e-015
rhumerus -14.622 -50.6142 -6.643
rradius 26.8724
rwrist 40.863
rhand -5.90013 -22.9283
rfingers 7.12502
rthumb 19.9284 -51.9265
lclavicle -9.69075e-016 -4.87022e-015
lhumerus -6.98909 36.3342 16.3795
lradius 24.898
lwrist -4.58429
lhand -20.1267 -5.56237
lfingers 7.12502
lthumb 6.21748 24.3264
rfemur -16.5841 -4.50168 17.2115
rtibia 31.3936
rfoot -18.2988 -5.58938
rtoes 11.7159
lfemur -13.5396 7.28726 -16.9086
ltibia 27.6626
lfoot -15.0828 14.1645
ltoes 6.93643
126
root 0.276866 17.4857 3.20303 6.0436 -3.1488 -0.958225
lowerback -6.27461 -0.734196 -1.11339
upperback 1.82702 -0.912121 0.476981
thorax 5.44549 -0.496635 1.02146
lowerneck -13.3238 0.165146 -0.0793094
upperneck 12.2532 0.0878629 1.00695
head 5.89486 0.117424 0.339522
rclavicle 4.8578e-015 -7.35503e-015
rhumerus -14.616 -50.6509 -6.65557
rradius 26.869
rwrist 40.8617
rhand -5.97528 -23.065
rfingers 7.12502
rthumb 19.8561 -52.0707
lclavicle 4.8578e-015 -7.35503e-015
lhumerus -6.94119 36.4099 16.4062
lradius 24.8621
lwrist -4.64599
lhand -20.1117 -5.50616
lfingers 7.12502
lthumb 6.23198 24.3822
rfemur -16.5731 -4.49368 17.2058
rtibia 31.3988
rfoot -18.2991 -5.62009
rtoes 11.5477
lfemur -13.53 7.30388 -16.913
ltibia 27.6652
lfoot -15.0994 14.1453
ltoes 7.03712
127
root 0.278934 17.4856 3.20283 6.062 -3.19515 -0.997262
lowerback -6.33855 -0.70983 -1.08614
upperback 1.86419 -0.882305 0.497675
thorax 5.51997 -0.481929 1.03003
lowerneck -13.4158 0.166415 -0.0629459
upperneck 12.3073 0.089832 0.979372
head 5.92751 0.117371 0.328574
rclavicle 5.46658e-015 1.10325e-014
rhumerus -14.6942 -50.3206 -6.57807
rradius 26.9352
rwrist 40.4818
rhand -5.9547 -22.495
rfingers 7.12502
rthumb 19.8759 -51.4986
lclavicle 5.46658e-015 1.10325e-014
lhumerus -6.95804 36.3696 16.4114
lradius 24.8992
lwrist -4.55754
lhand -19.8616 -5.91484
lfingers 7.12502
lthumb 6.47345 23.9662
rfemur -16.6064 -4.50448 17.2393
rtibia 31.4028
rfoot -18.2834 -5.56448
rtoes 11.5298
lfemur -13.5418 7.33431 -16.8837
ltibia 27.6663
lfoot -15.0922 14.1629
ltoes 6.98726
